<?xml version="1.0" encoding="utf-8"?>
<!-- Generator: Adobe Illustrator 19.0.1, SVG Export Plug-In . SVG Version: 6.00 Build 0)  -->
<svg version="1.1" id="Layer_1" xmlns="http://www.w3.org/2000/svg" xmlns:xlink="http://www.w3.org/1999/xlink" x="0px" y="0px"
	 width="293.96417px" height="240.49394px" viewBox="0 0 293.96417 240.49394"
	 style="enable-background:new 0 0 293.96417 240.49394;" xml:space="preserve">
<style type="text/css">
	.st0{fill:#D0D1D1;}
	.st1{fill:#C0BEBE;}
	.st2{fill:#1EA452;}
	.st3{opacity:0.6;fill:#FFFFFF;}
	.st4{fill:#5DB580;}
	.st5{fill:#FFFFFF;}
	.st6{opacity:0.5;fill:#8ACFF2;}
</style>
<g>
	<g id="yTAvCN.tif_9_">
		<g>
			<path class="st0" d="M293.96417,44.15462c-9.95178,23.43-19.55884,46.04837-29.33847,69.07307
				c-10.34451-4.3204-20.30214-8.47925-31.12291-12.99858c0,47.21355,0,93.56288,0,140.26483c-57.39851,0-114.1322,0-171.50804,0
				c0-46.61859,0-93.19647,0-140.8904c-11.38558,4.73615-21.84813,9.08833-32.66897,13.58955
				C19.53185,90.14165,9.92356,67.52714,0,44.17056C34.72513,29.42978,69.22769,14.78352,104.03863,0.00633
				c8.97423,17.74293,22.71698,28.41285,42.97285,28.40518C167.04863,28.40391,180.71634,17.96003,189.85153,0
				C224.44467,14.6711,258.95245,29.306,293.96417,44.15462z"/>
		</g>
	</g>
	<g id="yTAvCN.tif_8_">
		<g>
			<path class="st1" d="M61.99475,240.49394c0-46.61859,0-93.19647,0-140.8904
				c-11.38558,4.73615-21.84813,9.08833-32.66897,13.58955C19.53185,90.14165,9.92356,67.52714,0,44.17056
				C34.72513,29.42978,69.22769,14.78352,104.03863,0.00633c8.97423,17.74293,22.71698,28.41285,42.97285,28.40518
				L61.99475,240.49394z"/>
		</g>
	</g>
	<g>
		<path class="st2" d="M161.18033,120.24671c0,7.78645-6.18297,13.96941-13.96941,13.96941
			c-7.78593,0-13.9689-6.18297-13.9689-13.96941c0-7.78592,6.18297-13.96889,13.9689-13.96889
			C154.76851,106.27782,161.18033,112.46079,161.18033,120.24671z"/>
		<path class="st2" d="M146.98207,73.759c-25.64829,0-46.71709,20.83943-46.71709,46.48772
			c0,25.64881,20.83943,46.48824,46.71709,46.48824c10.07645,0,19.46532-3.20592,27.25175-8.70235l-14.65645-14.65594
			c-3.66412,2.06065-8.01529,3.20578-12.36646,3.20578c-14.42711,0-26.33535-11.67928-26.33535-26.10637
			c0-14.42761,11.67941-26.1065,26.33535-26.1065c14.42761,0,26.33586,11.67889,26.33586,26.1065
			c0,4.58002-1.14526,8.70183-3.20592,12.36594l14.65594,14.65646c5.49643-7.55708,8.70235-16.94647,8.70235-27.0224
			C193.69916,94.59843,172.85973,73.759,146.98207,73.759z"/>
	</g>
	<polygon class="st3" points="198.07016,170.55464 93.99921,170.55464 93.99921,82.96907 	"/>
	<g>
		<path class="st4" d="M159.57739,143.37666c-3.66412,2.06064-8.01534,3.2058-12.36647,3.2058
			c-14.42711,0-26.33533-11.67931-26.33533-26.10642c0-3.51645,0.69827-6.86731,1.9599-9.92791
			c-2.29058-2.51363-4.56277-5.01068-6.66246-7.80814c-0.42602-0.57622-0.85139-1.15302-1.27676-1.72976
			c-0.01202-0.00981-0.02386-0.01975-0.03587-0.02957c-0.77932-0.5458-1.57183-1.06963-2.40926-1.53783
			c-1.96523-1.09869-3.55447-2.55601-4.7721-4.23975c-4.67994,7.23237-7.41409,15.82327-7.41409,25.04361
			c0,25.64881,20.83948,46.48823,46.71713,46.48823c10.07642,0,19.46529-3.20586,27.25177-8.7023L159.57739,143.37666z"/>
	</g>
	<path class="st5" d="M198.07016,170.55464c-41.47858-35.04865-84.22577-20.40735-84.22577-20.40735
		c21.56697-36.00553-19.84518-67.17822-19.84518-67.17822L198.07016,170.55464z"/>
	<polygon class="st6" points="198.07016,170.55464 93.99921,170.55464 93.99921,82.96907 	"/>
	<path class="st5" d="M198.07016,170.55464c-41.47858-35.04865-84.22577-20.40735-84.22577-20.40735
		c21.56697-36.00553-19.84518-67.17822-19.84518-67.17822L198.07016,170.55464z"/>
</g>
</svg>
